<svg class="main-svg" xmlns="http://www.w3.org/2000/svg" xmlns:xlink="http://www.w3.org/1999/xlink" width="700" height="500" style="" viewBox="0 0 700 500"><rect x="0" y="0" width="700" height="500" style="fill: rgb(255, 255, 255); fill-opacity: 1;"/><defs id="defs-8543c9"><g class="clips"><clipPath id="clip8543c9xyplot" class="plotclip"><rect width="580" height="391"/></clipPath><clipPath class="axesclip" id="clip8543c9x"><rect x="80" y="0" width="580" height="500"/></clipPath><clipPath class="axesclip" id="clip8543c9y"><rect x="0" y="49" width="700" height="391"/></clipPath><clipPath class="axesclip" id="clip8543c9xy"><rect x="80" y="49" width="580" height="391"/></clipPath></g><g class="gradients"/><g class="patterns"/></defs><g class="bglayer"/><g class="layer-below"><g class="imagelayer"/><g class="shapelayer"/></g><g class="cartesianlayer"><g class="subplot xy"><g class="layer-subplot"><g class="shapelayer"/><g class="imagelayer"/></g><g class="minor-gridlayer"><g class="x"/><g class="y"/></g><g class="gridlayer"><g class="x"><path class="xgrid crisp" transform="translate(152.5,0)" d="M0,49v391" style="stroke: rgb(0, 0, 0); stroke-opacity: 0.1; stroke-width: 1px;"/><path class="xgrid crisp" transform="translate(225,0)" d="M0,49v391" style="stroke: rgb(0, 0, 0); stroke-opacity: 0.1; stroke-width: 1px;"/><path class="xgrid crisp" transform="translate(297.5,0)" d="M0,49v391" style="stroke: rgb(0, 0, 0); stroke-opacity: 0.1; stroke-width: 1px;"/><path class="xgrid crisp" transform="translate(370,0)" d="M0,49v391" style="stroke: rgb(0, 0, 0); stroke-opacity: 0.1; stroke-width: 1px;"/><path class="xgrid crisp" transform="translate(442.5,0)" d="M0,49v391" style="stroke: rgb(0, 0, 0); stroke-opacity: 0.1; stroke-width: 1px;"/><path class="xgrid crisp" transform="translate(515,0)" d="M0,49v391" style="stroke: rgb(0, 0, 0); stroke-opacity: 0.1; stroke-width: 1px;"/><path class="xgrid crisp" transform="translate(587.5,0)" d="M0,49v391" style="stroke: rgb(0, 0, 0); stroke-opacity: 0.1; stroke-width: 1px;"/></g><g class="y"><path class="ygrid crisp" transform="translate(0,383.42)" d="M80,0h580" style="stroke: rgb(0, 0, 0); stroke-opacity: 0.1; stroke-width: 1px;"/><path class="ygrid crisp" transform="translate(0,326.84)" d="M80,0h580" style="stroke: rgb(0, 0, 0); stroke-opacity: 0.1; stroke-width: 1px;"/><path class="ygrid crisp" transform="translate(0,270.26)" d="M80,0h580" style="stroke: rgb(0, 0, 0); stroke-opacity: 0.1; stroke-width: 1px;"/><path class="ygrid crisp" transform="translate(0,213.68)" d="M80,0h580" style="stroke: rgb(0, 0, 0); stroke-opacity: 0.1; stroke-width: 1px;"/><path class="ygrid crisp" transform="translate(0,157.1)" d="M80,0h580" style="stroke: rgb(0, 0, 0); stroke-opacity: 0.1; stroke-width: 1px;"/><path class="ygrid crisp" transform="translate(0,100.52000000000001)" d="M80,0h580" style="stroke: rgb(0, 0, 0); stroke-opacity: 0.1; stroke-width: 1px;"/></g></g><g class="zerolinelayer"><path class="yzl zl crisp" transform="translate(0,440)" d="M80,0h580" style="stroke: rgb(235, 240, 248); stroke-opacity: 1; stroke-width: 2px;"/></g><g class="layer-between"><g class="shapelayer"/><g class="imagelayer"/></g><path class="xlines-below"/><path class="ylines-below"/><g class="overlines-below"/><g class="xaxislayer-below"/><g class="yaxislayer-below"/><g class="overaxes-below"/><g class="overplot"><g class="xy" transform="translate(80,49)" clip-path="url(#clip8543c9xyplot)"><g class="scatterlayer mlayer"><g class="trace scatter trace398657" style="stroke-miterlimit: 2;"><g class="fills"><g><path class="js-fill" d="M580,391L0,391L0,391L142.81,390.38L145.73,390.17L160.3,388.13L163.22,387.45L174.87,383.69L177.79,382.51L206.93,370.09L209.85,369.27L221.51,367.16L224.42,366.87L259.4,364.52L262.31,364.54L271.06,365.34L273.97,365.88L294.37,370.76L297.29,370.83L303.12,369.55L306.03,367.97L311.86,362.35L314.77,358.11L320.6,346.31L323.52,338.64L329.35,319.63L332.26,308.31L341.01,267.97L343.92,252.76L373.07,94.22L375.98,81.45L381.81,59.64L384.72,50.89L390.55,38.4L393.47,34.9L396.38,33.36L399.3,33.83L402.21,36.33L405.13,40.85L408.04,47.32L410.95,55.63L416.78,77.14L419.7,89.92L431.36,148.53L434.27,163.72L445.93,219.86L448.84,231.99L457.59,262.78L460.5,271.19L466.33,285.49L469.25,291.52L475.08,301.73L477.99,306.06L486.73,316.83L489.65,319.92L521.71,352.67L524.62,355.94L539.2,371.35L542.11,374L550.85,380.66L553.77,382.42L562.51,386.43L565.43,387.37L574.17,389.32L577.09,389.73L580,390.05" style="fill: rgb(76, 120, 168); fill-opacity: 0.25; stroke-width: 0;"/></g></g><g class="errorbars"/><g class="lines"><path class="js-line" d="M0,391L142.81,390.38L145.73,390.17L160.3,388.13L163.22,387.45L174.87,383.69L177.79,382.51L206.93,370.09L209.85,369.27L221.51,367.16L224.42,366.87L259.4,364.52L262.31,364.54L271.06,365.34L273.97,365.88L294.37,370.76L297.29,370.83L303.12,369.55L306.03,367.97L311.86,362.35L314.77,358.11L320.6,346.31L323.52,338.64L329.35,319.63L332.26,308.31L341.01,267.97L343.92,252.76L373.07,94.22L375.98,81.45L381.81,59.64L384.72,50.89L390.55,38.4L393.47,34.9L396.38,33.36L399.3,33.83L402.21,36.33L405.13,40.85L408.04,47.32L410.95,55.63L416.78,77.14L419.7,89.92L431.36,148.53L434.27,163.72L445.93,219.86L448.84,231.99L457.59,262.78L460.5,271.19L466.33,285.49L469.25,291.52L475.08,301.73L477.99,306.06L486.73,316.83L489.65,319.92L521.71,352.67L524.62,355.94L539.2,371.35L542.11,374L550.85,380.66L553.77,382.42L562.51,386.43L565.43,387.37L574.17,389.32L577.09,389.73L580,390.05" style="vector-effect: none; fill: none; stroke: rgb(76, 120, 168); stroke-opacity: 1; stroke-width: 2px; opacity: 1;"/></g><g class="points"/><g class="text"/></g><g class="trace scatter tracedabd97" style="stroke-miterlimit: 2;"><g class="fills"><g><path class="js-fill" d="M580,391L0,391L0,391L87.44,390.32L90.35,390.15L107.84,388.29L110.75,387.81L125.33,384.57L128.24,383.78L160.3,375.1L163.22,374.58L177.79,373.04L180.7,372.91L221.51,371.14L224.42,370.89L247.74,369.67L250.65,369.68L279.8,369.91L282.71,369.57L291.46,367.57L294.37,366.49L300.2,363.52L303.12,361.58L308.94,356.65L311.86,353.6L317.69,346.18L320.6,341.75L326.43,331.34L329.35,325.32L338.09,303.82L341.01,295.51L349.75,267.42L352.66,257.13L370.15,190.56L373.07,179.57L381.81,149.01L384.72,140.02L390.55,124.48L393.47,118.11L399.3,108.55L402.21,105.47L405.13,103.56L408.04,102.83L410.95,103.27L413.87,104.87L416.78,107.57L419.7,111.32L425.53,121.66L428.44,128.07L437.19,150.94L440.1,159.4L463.42,227.18L466.33,234.61L475.08,254.82L477.99,260.9L489.65,282.58L492.56,287.49L507.14,310.1L510.05,314.3L524.62,333.63L527.54,337.11L539.2,349.6L542.11,352.37L553.77,362.21L556.68,364.39L571.26,373.91L574.17,375.55L580,378.57" style="fill: rgb(245, 133, 24); fill-opacity: 0.25; stroke-width: 0;"/></g></g><g class="errorbars"/><g class="lines"><path class="js-line" d="M0,391L87.44,390.32L90.35,390.15L107.84,388.29L110.75,387.81L125.33,384.57L128.24,383.78L160.3,375.1L163.22,374.58L177.79,373.04L180.7,372.91L221.51,371.14L224.42,370.89L247.74,369.67L250.65,369.68L279.8,369.91L282.71,369.57L291.46,367.57L294.37,366.49L300.2,363.52L303.12,361.58L308.94,356.65L311.86,353.6L317.69,346.18L320.6,341.75L326.43,331.34L329.35,325.32L338.09,303.82L341.01,295.51L349.75,267.42L352.66,257.13L370.15,190.56L373.07,179.57L381.81,149.01L384.72,140.02L390.55,124.48L393.47,118.11L399.3,108.55L402.21,105.47L405.13,103.56L408.04,102.83L410.95,103.27L413.87,104.87L416.78,107.57L419.7,111.32L425.53,121.66L428.44,128.07L437.19,150.94L440.1,159.4L463.42,227.18L466.33,234.61L475.08,254.82L477.99,260.9L489.65,282.58L492.56,287.49L507.14,310.1L510.05,314.3L524.62,333.63L527.54,337.11L539.2,349.6L542.11,352.37L553.77,362.21L556.68,364.39L571.26,373.91L574.17,375.55L580,378.57" style="vector-effect: none; fill: none; stroke: rgb(245, 133, 24); stroke-opacity: 1; stroke-width: 2px; opacity: 1;"/></g><g class="points"/><g class="text"/></g><g class="trace scatter trace1ce8ca" style="stroke-miterlimit: 2;"><g class="fills"><g><path class="js-fill" d="M580,391L0,391L0,391L151.56,390.27L154.47,390.02L169.05,387.71L171.96,387.02L198.19,380.76L201.11,380.55L209.85,380.97L212.76,381.42L238.99,386.33L241.91,386.25L247.74,385.29L250.65,384.36L256.48,381.56L259.4,379.67L268.14,372.33L271.06,369.47L285.63,355.7L288.54,353.74L294.37,351.25L297.29,350.81L303.12,351.49L306.03,352.5L320.6,359.19L323.52,359.62L326.43,359.28L329.35,357.97L332.26,355.5L335.18,351.7L338.09,346.42L341.01,339.53L346.83,320.61L349.75,308.52L355.58,279.28L358.49,262.37L367.24,204.97L370.15,184.57L381.81,105.75L384.72,88.45L390.55,58.77L393.47,46.81L399.3,29.31L402.21,23.87L405.13,20.64L408.04,19.55L410.95,20.52L413.87,23.42L416.78,28.1L419.7,34.39L425.53,51.05L428.44,61.03L437.19,95.22L440.1,107.49L475.08,255.34L477.99,266.39L486.73,296.07L489.65,304.55L495.48,319.1L498.39,325.18L504.22,335.15L507.14,339.21L515.88,348.96L518.79,351.75L547.94,378.02L550.85,380.14L559.6,385.2L562.51,386.44L571.26,388.98L574.17,389.51L580,390.23" style="fill: rgb(228, 87, 86); fill-opacity: 0.25; stroke-width: 0;"/></g></g><g class="errorbars"/><g class="lines"><path class="js-line" d="M0,391L151.56,390.27L154.47,390.02L169.05,387.71L171.96,387.02L198.19,380.76L201.11,380.55L209.85,380.97L212.76,381.42L238.99,386.33L241.91,386.25L247.74,385.29L250.65,384.36L256.48,381.56L259.4,379.67L268.14,372.33L271.06,369.47L285.63,355.7L288.54,353.74L294.37,351.25L297.29,350.81L303.12,351.49L306.03,352.5L320.6,359.19L323.52,359.62L326.43,359.28L329.35,357.97L332.26,355.5L335.18,351.7L338.09,346.42L341.01,339.53L346.83,320.61L349.75,308.52L355.58,279.28L358.49,262.37L367.24,204.97L370.15,184.57L381.81,105.75L384.72,88.45L390.55,58.77L393.47,46.81L399.3,29.31L402.21,23.87L405.13,20.64L408.04,19.55L410.95,20.52L413.87,23.42L416.78,28.1L419.7,34.39L425.53,51.05L428.44,61.03L437.19,95.22L440.1,107.49L475.08,255.34L477.99,266.39L486.73,296.07L489.65,304.55L495.48,319.1L498.39,325.18L504.22,335.15L507.14,339.21L515.88,348.96L518.79,351.75L547.94,378.02L550.85,380.14L559.6,385.2L562.51,386.44L571.26,388.98L574.17,389.51L580,390.23" style="vector-effect: none; fill: none; stroke: rgb(228, 87, 86); stroke-opacity: 1; stroke-width: 2px; opacity: 1;"/></g><g class="points"/><g class="text"/></g></g></g></g><g class="zerolinelayer-above"/><path class="xlines-above crisp" d="M0,0" style="fill: none;"/><path class="ylines-above crisp" d="M0,0" style="fill: none;"/><g class="overlines-above"/><g class="xaxislayer-above"><g class="xtick"><text text-anchor="middle" x="0" y="452" transform="translate(80,0)" style="font-family: Arial, sans-serif; font-size: 11px; fill: rgb(42, 63, 95); fill-opacity: 1; white-space: pre;">6</text></g><g class="xtick"><text text-anchor="middle" x="0" y="452" style="font-family: Arial, sans-serif; font-size: 11px; fill: rgb(42, 63, 95); fill-opacity: 1; white-space: pre;" transform="translate(152.5,0)">6.5</text></g><g class="xtick"><text text-anchor="middle" x="0" y="452" style="font-family: Arial, sans-serif; font-size: 11px; fill: rgb(42, 63, 95); fill-opacity: 1; white-space: pre;" transform="translate(225,0)">7</text></g><g class="xtick"><text text-anchor="middle" x="0" y="452" style="font-family: Arial, sans-serif; font-size: 11px; fill: rgb(42, 63, 95); fill-opacity: 1; white-space: pre;" transform="translate(297.5,0)">7.5</text></g><g class="xtick"><text text-anchor="middle" x="0" y="452" style="font-family: Arial, sans-serif; font-size: 11px; fill: rgb(42, 63, 95); fill-opacity: 1; white-space: pre;" transform="translate(370,0)">8</text></g><g class="xtick"><text text-anchor="middle" x="0" y="452" style="font-family: Arial, sans-serif; font-size: 11px; fill: rgb(42, 63, 95); fill-opacity: 1; white-space: pre;" transform="translate(442.5,0)">8.5</text></g><g class="xtick"><text text-anchor="middle" x="0" y="452" style="font-family: Arial, sans-serif; font-size: 11px; fill: rgb(42, 63, 95); fill-opacity: 1; white-space: pre;" transform="translate(515,0)">9</text></g><g class="xtick"><text text-anchor="middle" x="0" y="452" style="font-family: Arial, sans-serif; font-size: 11px; fill: rgb(42, 63, 95); fill-opacity: 1; white-space: pre;" transform="translate(587.5,0)">9.5</text></g><g class="xtick"><text text-anchor="middle" x="0" y="452" style="font-family: Arial, sans-serif; font-size: 11px; fill: rgb(42, 63, 95); fill-opacity: 1; white-space: pre;" transform="translate(660,0)">10</text></g></g><g class="yaxislayer-above"><g class="ytick"><text text-anchor="end" x="79" y="3.8499999999999996" transform="translate(0,440)" style="font-family: Arial, sans-serif; font-size: 11px; fill: rgb(42, 63, 95); fill-opacity: 1; white-space: pre;">0</text></g><g class="ytick"><text text-anchor="end" x="79" y="3.8499999999999996" style="font-family: Arial, sans-serif; font-size: 11px; fill: rgb(42, 63, 95); fill-opacity: 1; white-space: pre;" transform="translate(0,383.42)">0.2</text></g><g class="ytick"><text text-anchor="end" x="79" y="3.8499999999999996" style="font-family: Arial, sans-serif; font-size: 11px; fill: rgb(42, 63, 95); fill-opacity: 1; white-space: pre;" transform="translate(0,326.84)">0.4</text></g><g class="ytick"><text text-anchor="end" x="79" y="3.8499999999999996" style="font-family: Arial, sans-serif; font-size: 11px; fill: rgb(42, 63, 95); fill-opacity: 1; white-space: pre;" transform="translate(0,270.26)">0.6</text></g><g class="ytick"><text text-anchor="end" x="79" y="3.8499999999999996" style="font-family: Arial, sans-serif; font-size: 11px; fill: rgb(42, 63, 95); fill-opacity: 1; white-space: pre;" transform="translate(0,213.68)">0.8</text></g><g class="ytick"><text text-anchor="end" x="79" y="3.8499999999999996" style="font-family: Arial, sans-serif; font-size: 11px; fill: rgb(42, 63, 95); fill-opacity: 1; white-space: pre;" transform="translate(0,157.1)">1</text></g><g class="ytick"><text text-anchor="end" x="79" y="3.8499999999999996" style="font-family: Arial, sans-serif; font-size: 11px; fill: rgb(42, 63, 95); fill-opacity: 1; white-space: pre;" transform="translate(0,100.52000000000001)">1.2</text></g></g><g class="overaxes-above"/></g></g><g class="polarlayer"/><g class="smithlayer"/><g class="ternarylayer"/><g class="geolayer"/><g class="funnelarealayer"/><g class="pielayer"/><g class="iciclelayer"/><g class="treemaplayer"/><g class="sunburstlayer"/><g class="glimages"/><defs id="topdefs-8543c9"><g class="clips"/><clipPath id="legend8543c9"><rect width="241" height="29" x="0" y="0"/></clipPath></defs><g class="layer-above"><g class="imagelayer"/><g class="shapelayer"><g class="shape-group" data-index="0" clip-path="url(#clip8543c9x)"><path data-index="0" fill-rule="evenodd" d="M478.75,440L478.75,49" style="opacity: 0.6; stroke: rgb(76, 120, 168); stroke-opacity: 1; fill: rgb(0, 0, 0); fill-opacity: 0; stroke-dasharray: 3px, 3px; stroke-width: 1.5px;"/></g><g class="shape-group" data-index="1" clip-path="url(#clip8543c9x)"><path data-index="1" fill-rule="evenodd" d="M486,440L486,49" style="opacity: 0.6; stroke: rgb(245, 133, 24); stroke-opacity: 1; fill: rgb(0, 0, 0); fill-opacity: 0; stroke-dasharray: 3px, 3px; stroke-width: 1.5px;"/></g><g class="shape-group" data-index="2" clip-path="url(#clip8543c9x)"><path data-index="2" fill-rule="evenodd" d="M493.25,440L493.25,49" style="opacity: 0.6; stroke: rgb(228, 87, 86); stroke-opacity: 1; fill: rgb(0, 0, 0); fill-opacity: 0; stroke-dasharray: 3px, 3px; stroke-width: 1.5px;"/></g></g></g><g class="infolayer"><g class="legend" pointer-events="all" transform="translate(249.5,12.179999999999993)"><rect class="bg" shape-rendering="crispEdges" style="stroke: rgb(68, 68, 68); stroke-opacity: 1; fill: rgb(255, 255, 255); fill-opacity: 1; stroke-width: 0px;" width="241" height="29" x="0" y="0"/><g class="scrollbox" transform="" clip-path="url(#legend8543c9)"><g class="groups"><g class="traces" transform="translate(0,14.5)" style="opacity: 1;"><text class="legendtext" text-anchor="start" x="40" y="4.29" style="font-family: Arial, sans-serif; font-size: 11px; fill: rgb(42, 63, 95); fill-opacity: 1; white-space: pre;">GPT-4o</text><g class="layers"><g class="legendfill"><path class="js-fill" d="M5,-2h30v6h-30z" style="stroke-width: 0; fill: rgb(76, 120, 168); fill-opacity: 0.25;"/></g><g class="legendlines"><path class="js-line" d="M5,-2h30" style="fill: none; stroke: rgb(76, 120, 168); stroke-opacity: 1; stroke-width: 2px;"/></g><g class="legendsymbols"><g class="legendpoints"/></g></g><rect class="legendtoggle" x="0" y="-9.5" width="80.40625" height="19" style="fill: rgb(0, 0, 0); fill-opacity: 0;"/></g><g class="traces" transform="translate(82.90625,14.5)" style="opacity: 1;"><text class="legendtext" text-anchor="start" x="40" y="4.29" style="font-family: Arial, sans-serif; font-size: 11px; fill: rgb(42, 63, 95); fill-opacity: 1; white-space: pre;">o4-mini</text><g class="layers"><g class="legendfill"><path class="js-fill" d="M5,-2h30v6h-30z" style="stroke-width: 0; fill: rgb(245, 133, 24); fill-opacity: 0.25;"/></g><g class="legendlines"><path class="js-line" d="M5,-2h30" style="fill: none; stroke: rgb(245, 133, 24); stroke-opacity: 1; stroke-width: 2px;"/></g><g class="legendsymbols"><g class="legendpoints"/></g></g><rect class="legendtoggle" x="0" y="-9.5" width="78.578125" height="19" style="fill: rgb(0, 0, 0); fill-opacity: 0;"/></g><g class="traces" transform="translate(163.984375,14.5)" style="opacity: 1;"><text class="legendtext" text-anchor="start" x="40" y="4.29" style="font-family: Arial, sans-serif; font-size: 11px; fill: rgb(42, 63, 95); fill-opacity: 1; white-space: pre;">GPT-5</text><g class="layers"><g class="legendfill"><path class="js-fill" d="M5,-2h30v6h-30z" style="stroke-width: 0; fill: rgb(228, 87, 86); fill-opacity: 0.25;"/></g><g class="legendlines"><path class="js-line" d="M5,-2h30" style="fill: none; stroke: rgb(228, 87, 86); stroke-opacity: 1; stroke-width: 2px;"/></g><g class="legendsymbols"><g class="legendpoints"/></g></g><rect class="legendtoggle" x="0" y="-9.5" width="74.296875" height="19" style="fill: rgb(0, 0, 0); fill-opacity: 0;"/></g></g></g><rect class="scrollbar" rx="20" ry="3" width="0" height="0" style="fill: rgb(128, 139, 164); fill-opacity: 1;" x="0" y="0"/></g><g class="g-gtitle"/><g class="g-xtitle"><text class="xtitle" x="370" y="477.6" text-anchor="middle" style="opacity: 1; font-family: Arial, sans-serif; font-size: 13px; fill: rgb(42, 63, 95); fill-opacity: 1; white-space: pre;">Empathy Score</text></g><g class="g-ytitle"><text class="ytitle" transform="rotate(-90,44.653125,244.5)" x="44.653125" y="244.5" text-anchor="middle" style="opacity: 1; font-family: Arial, sans-serif; font-size: 13px; fill: rgb(42, 63, 95); fill-opacity: 1; white-space: pre;">Density</text></g><g class="annotation" data-index="0" style="opacity: 1;"><g class="annotation-text-g" transform="rotate(0,587.5,142.84)"><g class="cursor-pointer" transform="translate(529,135)"><rect class="bg" x="0.5" y="0.5" width="116" height="14" style="stroke-width: 1px; stroke: rgb(128, 128, 128); stroke-opacity: 1; fill: rgb(255, 255, 255); fill-opacity: 1;"/><text class="annotation-text" text-anchor="middle" x="58.328125" y="11" style="font-family: Arial, sans-serif; font-size: 10px; fill: rgb(42, 63, 95); fill-opacity: 1; white-space: pre;">KW H=4.33, p=0.115 (ns)</text></g></g></g></g></svg>